# File created by Blade
# Date/Time:  Thu Sep 25 18:48:06 2014
# Frame Rate: 120.000 fps
#------------------------------------------------------
:FULLY-SPECIFIED
:DEGREES
547
root 0.111804 32.647561 -6.526641 100.099062 7.133899 -1.354010
Spine 59.950999 1.124225 3.614066
Head -24.831238 -0.192483 14.149720
LeftShoulder -20.937802 17.626184 19.495685
LeftArm -81.904985 24.690215 -107.805081
LeftForeArm 10.421529 -0.000000 24.648222
LeftHand -15.396010 -0.000000 -68.334215
LeftHandThumb1 -26.253704 0.000000 33.147579
RightShoulder -26.589221 -26.920748 -33.907101
RightArm -57.465699 -20.976981 92.000520
RightForeArm -24.481149 -0.000000 5.782627
RightHand 1.713992 -0.000000 71.580760
RightHandThumb1 -24.326973 -0.000000 -32.862282
LeftUpLeg -110.203967 2.221467 -10.122533
LeftLeg -3.167241 -0.000000 0.000000
LeftFoot 8.714757 0.424817 -12.922659
LeftToeBase 14.409093 -0.000000 -0.000000
RightUpLeg -108.852225 0.724488 15.451753
RightLeg 1.410826 -0.000000 -0.000000
RightFoot 4.833262 -3.691943 3.545942
RightToeBase 1.406919 -0.000000 -0.000000
548
root 0.110065 32.648198 -6.522659 100.127544 7.100539 -1.371227
Spine 59.957811 1.453387 3.561322
Head -24.993541 -0.043285 15.079886
LeftShoulder -20.861444 17.791147 19.884782
LeftArm -81.578038 24.753974 -107.694447
LeftForeArm 10.605694 -0.000000 24.547319
LeftHand -15.458705 -0.000000 -68.330490
LeftHandThumb1 -26.253704 0.000000 33.147579
RightShoulder -26.803739 -27.165659 -33.359580
RightArm -57.204792 -21.001011 91.798584
RightForeArm -24.363008 0.000000 5.729217
RightHand 1.654023 -0.000000 71.663125
RightHandThumb1 -24.326973 -0.000000 -32.862282
LeftUpLeg -110.219238 2.212909 -10.213611
LeftLeg -3.188582 -0.000000 0.000000
LeftFoot 8.715512 0.361724 -12.918124
LeftToeBase 14.446905 -0.000000 -0.000000
RightUpLeg -108.894847 0.716397 15.331877
RightLeg 1.455232 -0.000000 -0.000000
RightFoot 4.803504 -3.764770 3.631500
RightToeBase 1.369820 -0.000000 -0.000000
549
root 0.110153 32.648735 -6.519371 100.138307 7.081668 -1.383006
Spine 59.982909 1.691792 3.518893
Head -25.152322 0.077870 15.769807
LeftShoulder -20.811898 17.805764 20.158537
LeftArm -81.460112 24.772174 -107.641813
LeftForeArm 10.710750 0.000000 24.474284
LeftHand -15.479977 -0.000000 -68.276376
LeftHandThumb1 -26.253704 0.000000 33.147579
RightShoulder -26.969828 -27.295514 -32.980939
RightArm -57.073094 -21.056672 91.699819
RightForeArm -24.327530 -0.000000 5.718129
RightHand 1.671730 -0.000000 71.583676
RightHandThumb1 -24.326973 -0.000000 -32.862282
LeftUpLeg -110.219755 2.203117 -10.261483
LeftLeg -3.185780 -0.000000 0.000000
LeftFoot 8.682402 0.381663 -12.937349
LeftToeBase 14.417769 -0.000000 -0.000000
RightUpLeg -108.932080 0.708101 15.254952
RightLeg 1.521797 -0.000000 -0.000000
RightFoot 4.768394 -3.817190 3.654696
RightToeBase 1.322037 -0.000000 -0.000000
550
root 0.111019 32.649305 -6.515568 100.146841 7.045321 -1.399962
Spine 59.986270 1.949517 3.456183
Head -25.241314 0.155776 16.481042
LeftShoulder -20.719658 17.760028 20.471927
LeftArm -81.472578 24.775853 -107.746027
LeftForeArm 10.689293 0.000000 24.437224
LeftHand -15.515815 -0.000000 -68.222839
LeftHandThumb1 -26.253704 0.000000 33.147579
RightShoulder -27.122476 -27.476668 -32.585976
RightArm -56.888181 -21.090861 91.589861
RightForeArm -24.277844 -0.000000 5.693249
RightHand 1.675578 0.000000 71.593151
RightHandThumb1 -24.326973 -0.000000 -32.862282
LeftUpLeg -110.217517 2.199040 -10.334020
LeftLeg -3.197427 -0.000000 0.000000
LeftFoot 8.668205 0.360471 -12.947056
LeftToeBase 14.426179 -0.000000 -0.000000
RightUpLeg -108.967068 0.709336 15.177872
RightLeg 1.585700 -0.000000 -0.000000
RightFoot 4.731808 -3.858755 3.623727
RightToeBase 1.364252 -0.000000 -0.000000
551
root 0.110895 32.649975 -6.510979 100.149511 7.025186 -1.415477
Spine 59.992714 2.201843 3.415095
Head -25.318338 0.225598 17.170775
LeftShoulder -20.613598 17.747222 20.791674
LeftArm -81.300748 24.684499 -107.584643
LeftForeArm 10.923339 -0.000000 24.344549
LeftHand -15.501597 -0.000000 -68.210455
LeftHandThumb1 -26.253704 0.000000 33.147579
RightShoulder -27.267944 -27.657571 -32.183876
RightArm -56.675594 -21.073184 91.416367
RightForeArm -24.353548 -0.000000 5.664753
RightHand 1.804447 -0.000000 71.632788
RightHandThumb1 -24.326973 -0.000000 -32.862282
LeftUpLeg -110.207386 2.211000 -10.364610
LeftLeg -3.212828 -0.000000 0.000000
LeftFoot 8.660958 0.347484 -12.942197
LeftToeBase 14.396320 -0.000000 -0.000000
RightUpLeg -108.985486 0.710585 15.104513
RightLeg 1.636702 -0.000000 -0.000000
RightFoot 4.703287 -3.931612 3.604816
RightToeBase 1.351618 -0.000000 -0.000000
552
root 0.110337 32.650942 -6.507683 100.147374 7.018965 -1.428980
Spine 59.985078 2.406681 3.382805
Head -25.357060 0.287371 17.734256
LeftShoulder -20.530557 17.757962 21.044984
LeftArm -81.188349 24.647681 -107.541404
LeftForeArm 11.056752 -0.000000 24.280606
LeftHand -15.445044 -0.000000 -68.229917
LeftHandThumb1 -26.253704 0.000000 33.147579
RightShoulder -27.344123 -27.668640 -31.900034
RightArm -56.712346 -21.080683 91.372397
RightForeArm -24.280356 -0.000000 5.686614
RightHand 1.755778 0.000000 71.622121
RightHandThumb1 -24.326973 -0.000000 -32.862282
LeftUpLeg -110.204860 2.224556 -10.392508
LeftLeg -3.222136 -0.000000 0.000000
LeftFoot 8.697394 0.285794 -12.886028
LeftToeBase 14.334477 -0.000000 -0.000000
RightUpLeg -108.996930 0.713931 15.052805
RightLeg 1.678440 -0.000000 -0.000000
RightFoot 4.680930 -3.977322 3.561711
RightToeBase 1.387541 -0.000000 -0.000000
553
root 0.111242 32.651584 -6.503260 100.131231 7.013367 -1.445648
Spine 59.977954 2.531383 3.334957
Head -25.336858 0.297539 18.058990
LeftShoulder -20.473830 17.785764 21.196356
LeftArm -81.088147 24.612688 -107.519109
LeftForeArm 11.174697 0.000000 24.219129
LeftHand -15.377267 -0.000000 -68.267024
LeftHandThumb1 -26.253704 0.000000 33.147579
RightShoulder -27.360233 -27.678735 -31.724137
RightArm -56.732346 -21.086599 91.364016
RightForeArm -24.160972 -0.000000 5.697426
RightHand 1.740647 -0.000000 71.665415
RightHandThumb1 -24.326973 -0.000000 -32.862282
LeftUpLeg -110.183251 2.239302 -10.396585
LeftLeg -3.217349 -0.000000 0.000000
LeftFoot 8.655498 0.329741 -12.942221
LeftToeBase 14.343644 -0.000000 -0.000000
RightUpLeg -108.982767 0.711444 15.001666
RightLeg 1.700785 -0.000000 -0.000000
RightFoot 4.668069 -4.023600 3.575001
RightToeBase 1.380101 -0.000000 -0.000000
554
root 0.111478 32.652594 -6.498330 100.121035 7.010108 -1.454311
Spine 59.968671 2.694490 3.299227
Head -25.340575 0.330636 18.498586
LeftShoulder -20.412637 17.804799 21.401403
LeftArm -80.951688 24.571988 -107.464298
LeftForeArm 11.322796 -0.000000 24.159895
LeftHand -15.381908 0.000000 -68.235889
LeftHandThumb1 -26.253704 0.000000 33.147579
RightShoulder -27.425121 -27.724043 -31.501659
RightArm -56.676454 -21.084876 91.307673
RightForeArm -24.042246 -0.000000 5.696317
RightHand 1.666293 -0.000000 71.664558
RightHandThumb1 -24.326973 -0.000000 -32.862282
LeftUpLeg -110.167491 2.238491 -10.447673
LeftLeg -3.234506 -0.000000 0.000000
LeftFoot 8.713020 0.243595 -12.890369
LeftToeBase 14.327707 -0.000000 -0.000000
RightUpLeg -108.980189 0.711167 14.968084
RightLeg 1.734053 -0.000000 -0.000000
RightFoot 4.654694 -4.061258 3.522051
RightToeBase 1.373255 -0.000000 -0.000000
555
root 0.114945 32.653105 -6.494019 100.098074 7.021570 -1.453975
Spine 59.964223 2.758246 3.291530
Head -25.315093 0.379148 18.704583
LeftShoulder -20.369898 17.795923 21.505998
LeftArm -80.866835 24.530859 -107.434903
LeftForeArm 11.450817 -0.000000 24.103679
LeftHand -15.357487 -0.000000 -68.272999
LeftHandThumb1 -26.253704 0.000000 33.147579
RightShoulder -27.477127 -27.783763 -31.399099
RightArm -56.587301 -21.082388 91.256423
RightForeArm -23.960538 -0.000000 5.686658
RightHand 1.587480 -0.000000 71.748626
RightHandThumb1 -24.326973 -0.000000 -32.862282
LeftUpLeg -110.136662 2.233627 -10.433077
LeftLeg -3.226072 -0.000000 0.000000
LeftFoot 8.665754 0.295189 -12.916374
LeftToeBase 14.334316 -0.000000 -0.000000
RightUpLeg -108.966891 0.700258 14.970040
RightLeg 1.768355 -0.000000 -0.000000
RightFoot 4.645266 -4.084437 3.497112
RightToeBase 1.340689 -0.000000 -0.000000
556
root 0.116017 32.653800 -6.488117 100.064982 7.036629 -1.457227
Spine 59.990709 2.837044 3.290511
Head -25.339821 0.434672 18.922863
LeftShoulder -20.348062 17.707200 21.572896
LeftArm -80.910715 24.525571 -107.492815
LeftForeArm 11.455077 -0.000000 24.110534
LeftHand -15.339036 -0.000000 -68.279816
LeftHandThumb1 -26.253704 0.000000 33.147579
RightShoulder -27.552210 -27.793010 -31.301735
RightArm -56.533313 -21.095598 91.232194
RightForeArm -23.945026 0.000000 5.668459
RightHand 1.625358 0.000000 71.831141
RightHandThumb1 -24.326973 -0.000000 -32.862282
LeftUpLeg -110.093490 2.229369 -10.476616
LeftLeg -3.250459 -0.000000 0.000000
LeftFoot 8.730323 0.190142 -12.882805
LeftToeBase 14.250748 -0.000000 -0.000000
RightUpLeg -108.919119 0.675383 14.934631
RightLeg 1.763926 -0.000000 -0.000000
RightFoot 4.627861 -4.122206 3.511555
RightToeBase 1.372843 -0.000000 -0.000000
